<svg xmlns="http://www.w3.org/2000/svg" viewBox="0 0 248.19 185.94"><title>fish</title><g id="Layer_2" data-name="Layer 2"><g id="Layer_1-2" data-name="Layer 1"><path d="M214.23,55.17a139.57,139.57,0,0,0-28.83-13.64C183.29,28.46,174.06,8,149.46.3A6.51,6.51,0,0,0,146,.17C117.25,6.89,86.17,15.61,85.86,15.7a6.54,6.54,0,0,0-4.79,5.17,6.28,6.28,0,0,0,2.73,6.34c.38.28,8.81,6.85,6.93,22.68C77.32,56.78,65.52,65.21,56.57,74.3,41,55.74,10,47.43,8.51,47a6.5,6.5,0,0,0-7.08,9.86c.15.22,14.65,22.54,14.68,41.28,0,1-.73,25.26-14.58,41.68a6.5,6.5,0,0,0,5,10.69c29.18,0,44.41-17.42,50.9-27.84,11.67,8.73,37.76,26.58,63.86,33.16,1.12,10.38-3.32,20.85-3.37,21a6.5,6.5,0,0,0,6,9.11H148a6.53,6.53,0,0,0,.82-.05c9.19-1.17,25.79-9.38,27.32-31.8a179.69,179.69,0,0,0,31.15-9.69c26.75-11.35,40.9-26.75,40.9-44.51C248.19,84.95,235.81,68.65,214.23,55.17Zm-67-41.92A37.39,37.39,0,0,1,171,37.49a117.79,117.79,0,0,0-25.35-2.9c-12.12,0-26.92,3.33-41.68,9.26a38.63,38.63,0,0,0-5-18.28C110,22.57,128.95,17.55,147.21,13.25Zm.28,159.7H132.73a58.15,58.15,0,0,0,1.69-14.8c1.82.15,3.63.25,5.41.25a158.42,158.42,0,0,0,22.93-1.84C160.32,169.87,149.84,172.52,147.5,172.94Zm-7.67-27.55a57.36,57.36,0,0,1-9.53-.85,6.49,6.49,0,0,0-4.71-1C94,136.13,59.81,108.14,59.41,107.81a6.5,6.5,0,0,0-10.21,2.67c-.09.23-7.79,19.54-29.6,25.4,9.11-17.83,9.49-36.59,9.5-37.56v-.09c0-11.65-4.26-23.85-8.49-33.1,1.3.56,2.63,1.17,4,1.82C37.41,73.09,46.22,80.29,50.07,87.8A6.5,6.5,0,0,0,60.9,88.92c19.73-24.36,60.5-41.33,84.76-41.33a109.69,109.69,0,0,1,30.73,4.76,6.4,6.4,0,0,0,2.24.69A126.86,126.86,0,0,1,207.35,66.2c17.18,10.73,27.85,23.64,27.85,33.69C235.19,126.28,178.23,145.39,139.83,145.39Z" fill="#055138"/><circle cx="192.21" cy="93.86" r="10.79" fill="#055138"/></g></g></svg>