<?xml version="1.0" encoding="utf-8"?>
<!-- Generator: Adobe Illustrator 20.1.0, SVG Export Plug-In . SVG Version: 6.00 Build 0)  -->
<!DOCTYPE svg PUBLIC "-//W3C//DTD SVG 1.1//EN" "http://www.w3.org/Graphics/SVG/1.1/DTD/svg11.dtd">
<svg version="1.1" id="Layer_1" xmlns="http://www.w3.org/2000/svg" xmlns:xlink="http://www.w3.org/1999/xlink" x="0px" y="0px"
	 viewBox="0 0 960 186.5" style="enable-background:new 0 0 960 186.5;" xml:space="preserve">
<style type="text/css">
	.st0{fill:#231F20;}
</style>
<g>
	<path class="st0" d="M257.7,137.9c-1.3-16.6-14.9-29.7-31.6-30.5c-4.6-0.2-9.1,0.5-13.3,2.1c-3.3,1.3-6.5,3-9.2,5.3V14.2
		c0-3.4-2.8-6.2-6.2-6.2s-6.2,2.8-6.2,6.2v106.3L174.5,137c-1.7-15.2-13.9-27.9-29.5-29.5c-18-1.9-34.2,10.8-36.7,28.5l-16.7,16.8
		v-35c0-5.9-4.8-10.6-10.6-10.6H67.1c-5.9,0-10.6,4.8-10.6,10.6v0.7l-44.6,44.6c-1.2,1.2-1.8,2.7-1.8,4.4s0.6,3.2,1.8,4.4
		c2.4,2.4,6.4,2.4,8.8,0L69,123.6v-4.1h10.2v45.3c0,3.1,1.8,5.7,4.6,6.9c2.9,1.2,6,0.6,8.2-1.6l18-18.1c4.7,13,17.3,22,31.4,22
		c0.8,0,1.7,0,2.7-0.1c7.9-0.6,15.3-4.1,20.9-9.7l26.2-26.2v2.6c0,18.4,15,33.4,33.4,33.4c9.3,0,18.2-3.9,24.5-10.8
		c5.8-6.2,8.8-14.2,8.8-22.6C257.9,139.8,257.8,138.8,257.7,137.9z M156.1,155.4c-4,4-9.2,6.1-14.8,6.1c-11.5,0-20.9-9.4-20.9-20.9
		v-0.2c0.1-7,3.7-13.5,9.6-17.4c3.4-2.2,7.2-3.3,11.3-3.3c0.7,0,1.4,0,2.1,0.1c9.8,0.9,17.6,8.7,18.7,18.4
		C162.8,144.7,160.6,150.9,156.1,155.4z M224.5,161.6c-11.5,0-20.9-9.4-20.9-20.9s9.4-20.9,20.9-20.9s20.9,9.4,20.9,20.9
		C245.4,152.2,236,161.6,224.5,161.6z"/>
</g>
<g>
	<path class="st0" d="M950.3,112.9c-0.3-0.7-0.8-1.4-1.4-2c-1.2-1.2-2.7-1.8-4.4-1.8l0,0c-1.7,0-3.2,0.6-4.4,1.8l-40.7,40.7V14.1
		c0-3.4-2.8-6.2-6.2-6.2c-1.7,0-3.2,0.7-4.4,1.8c-1.2,1.2-1.8,2.7-1.8,4.4v96.2l-40.8,40.8v-137c0-3.4-2.8-6.2-6.2-6.2
		c-1.7,0-3.2,0.7-4.4,1.8c-1.2,1.2-1.8,2.7-1.8,4.4v96.2l-44.4,44.4l-0.1,0.1c-0.5,0.6-1.1,1.2-1.7,1.7c-3.8,3.4-8.8,5.3-13.9,5.3
		c-3.2,0-6.3-0.7-9.1-2.1l31.5-31.4c1.7-1.7,2.6-3.9,2.5-6.3s-1.2-4.6-3-6.2c-0.2-0.2-0.5-0.4-0.7-0.6c-6-4.9-13.5-7.6-21.2-7.6
		c-0.7,0-1.5,0-2.4,0.1h-0.1h-0.9l-0.1,0.1c-7,0.8-13.7,3.8-18.9,8.6l-35.1,35.1v-16.6c0-7.3-2.9-14.2-8.1-19.4
		c-5.2-5.1-12-7.9-19.2-7.9c-5.7,0-11.1,1.7-15.6,4.9c-0.7-1.4-1.9-2.5-3.5-3.1c-2.7-1.1-5.6-0.5-7.6,1.5l-40.6,40.6v-16.6
		c0-7.3-2.9-14.2-8.1-19.4c-5.2-5.1-12-7.9-19.2-7.9c-5.6,0-11,1.7-15.6,4.9c-0.7-1.5-2-2.6-3.6-3.3c-2.7-1.1-5.6-0.5-7.6,1.5
		l-26.6,26.6c-1.7-15.8-14.6-28.5-30.8-29.7c-0.9-0.1-1.6-0.1-2.4-0.1c-3.5,0-7,0.6-10.4,1.7c-9.9,3.2-17.7,11-21.1,20.7l-21.3,21.2
		v-137c0-3.4-2.8-6.2-6.2-6.2c-1.7,0-3.2,0.6-4.4,1.8c-1.2,1.2-1.8,2.8-1.8,4.4v100.6c-5.9-4.8-13.3-7.4-20.9-7.4
		c-4.7,0-9.2,1-13.4,2.8c-3.4,1.5-6.6,3.6-9.3,6.2L378,136.9c-1.8-16.7-16-29.8-33.2-29.8c-9.2,0-18.1,3.9-24.4,10.7
		c-6.4,6.9-9.5,15.8-8.8,25.2c1.2,16.4,14.5,29.6,30.8,30.8c9.4,0.7,18.4-2.5,25.2-8.9l0,0l20.7-20.7c1.8,16.7,16,29.7,33.2,29.7
		c8.2,0,16-3,22-8.3c1.5,2.8,4.4,4.6,7.8,4.6h2.1l21.8-21.8c3.5,14.8,16.9,25.7,32.5,25.7c0.9,0,1.8,0,2.7-0.1
		c7.6-0.6,14.8-3.8,20.3-9.1l36.2-36.2v35.1c0,1.8,0.7,3.5,2,4.7c1.2,1.2,2.9,1.8,4.5,1.7c1.5-0.1,3-0.7,4.1-1.8
		c1.2-1.2,1.8-2.7,1.8-4.4v-28.5c0-0.3,0-0.5,0-0.8s0-0.5,0-0.8c0.2-4,2.1-7.9,5.2-10.5c3.1-2.7,7.1-3.9,11.3-3.5
		c7.5,0.8,13.2,7.3,13.2,15.1v26c0,5.1,4.2,9.3,9.3,9.3h2l41.3-41.2v34.8c0,1.8,0.7,3.5,2,4.7c1.2,1.2,2.8,1.8,4.5,1.7
		c1.6-0.1,3.1-0.7,4.2-1.8c1.2-1.2,1.8-2.7,1.8-4.4v-28.8c0-0.1,0-0.3,0-0.4c0-0.1,0-0.3,0-0.4v-0.1c0.1-4.1,2-8,5.1-10.7
		s7.2-4,11.3-3.6c7.4,0.8,13.3,7.4,13.3,15.1v25.7c0,2.5,1,4.8,2.8,6.6s4.1,2.7,6.6,2.7h1.9l25.5-25.6c0.7,6.3,3.3,12.4,7.4,17.4
		c1.7,2,3.6,3.9,5.7,5.5c5.8,4.4,12.8,6.7,20.1,6.7c0.9,0,1.8,0,2.6-0.1c7.3-0.6,14.4-3.6,19.8-8.6l37.6-37.6v33.7
		c0,4.8,3.9,8.6,8.6,8.6h2.3L887,128v33.2c0,5,4.1,9.1,9.1,9.1h1.3l1-0.4l50.6-50.1c1.2-1.2,1.8-2.7,1.8-4.4
		C950.8,114.5,950.6,113.7,950.3,112.9z M365.6,141.9c-0.7,10.4-9,18.8-19.5,19.5c-6,0.4-11.9-1.8-16.2-6.1
		c-4.3-4.3-6.5-10.1-6.1-16.2c0.7-10.4,9.1-18.8,19.5-19.5c0.4,0,0.9,0,1.3,0c5.5,0,10.9,2.2,14.8,6.1
		C363.8,130.1,366,135.9,365.6,141.9z M436.2,155.4c-4,4-9.2,6.1-14.8,6.1c-0.7,0-1.5,0-2.2-0.1c-9.7-1-17.5-8.8-18.5-18.5
		c-0.6-6,1.2-11.8,5.3-16.2l0.1-0.1c0.4-0.4,0.8-0.8,1.2-1.3l0.1-0.1c4.5-4.1,10.3-5.9,16.3-5.3c9.7,1,17.5,8.8,18.5,18.5
		C442.9,144.7,440.7,150.9,436.2,155.4z M522.8,155.2L522.8,155.2c-0.3,0.3-0.5,0.5-0.7,0.8H522c-4.3,4.1-10.3,6.2-16.3,5.6
		c-10.1-0.9-18.2-9.2-18.9-19.3c-0.2-2.2,0-4.4,0.6-6.6c1.9-7.5,7.7-13.3,15.2-15.2c1.7-0.4,3.4-0.6,5.2-0.6c0.2,0,0.4,0,0.6,0
		c11.2,0.3,20.3,9.7,20.3,21C528.5,146.3,526.5,151.3,522.8,155.2z M759.7,125.3c3.8-3.4,8.8-5.3,13.9-5.3c3.6,0,7.2,0.9,10.3,2.7
		l-28.5,28.5c-1.8-3.1-2.7-6.6-2.7-10.3c0-5.1,1.9-10,5.3-13.9C758.6,126.4,759.1,125.8,759.7,125.3z"/>
</g>
</svg>
